HIERARCHY
ROOT pelvis
{
	OFFSET 0.003123 -0.351407 0.012037
	CHANNELS 6 Xposition Yposition Zposition Zrotation Yrotation Xrotation 
	JOINT left_hip
	{
		OFFSET 0.058189 -0.092763 -0.026001
		CHANNELS 3 Zrotation Yrotation Xrotation
		JOINT left_knee
		{
			OFFSET 0.054695 -0.378753 -0.009396
			CHANNELS 3 Zrotation Yrotation Xrotation
			JOINT left_ankle
			{
				OFFSET -0.043453 -0.403059 -0.031876
				CHANNELS 3 Zrotation Yrotation Xrotation
				JOINT left_foot
				{
					OFFSET 0.047257 -0.057997 0.118216
					CHANNELS 3 Zrotation Yrotation Xrotation
					End Site
					{
						OFFSET 0.000000 0.000000 0.000000
					}
				}
			}
		}
	}
	JOINT right_hip
	{
		OFFSET -0.063267 -0.103908 -0.021250
		CHANNELS 3 Zrotation Yrotation Xrotation
		JOINT right_knee
		{
			OFFSET -0.044210 -0.362380 -0.016824
			CHANNELS 3 Zrotation Yrotation Xrotation
			JOINT right_ankle
			{
				OFFSET 0.015417 -0.410728 -0.020192
				CHANNELS 3 Zrotation Yrotation Xrotation
				JOINT right_foot
				{
					OFFSET -0.038812 -0.058328 0.119049
					CHANNELS 3 Zrotation Yrotation Xrotation
					End Site
					{
						OFFSET 0.000000 0.000000 0.000000
					}
				}
			}
		}
	}
	JOINT spine_1
	{
		OFFSET -0.002763 0.109891 -0.027618
		CHANNELS 3 Zrotation Yrotation Xrotation
		JOINT spine_2
		{
			OFFSET 0.009448 0.131853 -0.005940
			CHANNELS 3 Zrotation Yrotation Xrotation
			JOINT spine_3
			{
				OFFSET -0.011330 0.052235 0.028447
				CHANNELS 3 Zrotation Yrotation Xrotation
				JOINT neck
				{
					OFFSET -0.012164 0.165167 -0.031615
					CHANNELS 3 Zrotation Yrotation Xrotation
					JOINT head
					{
						OFFSET 0.024783 0.160452 0.020737
						CHANNELS 3 Zrotation Yrotation Xrotation
						End Site
						{
							OFFSET 0.000000 0.000000 0.000000
						}
					}
				}
				JOINT left_collar
				{
					OFFSET 0.046364 0.084944 -0.007220
					CHANNELS 3 Zrotation Yrotation Xrotation
					JOINT left_shoulder
					{
						OFFSET 0.119239 0.057728 -0.015461
						CHANNELS 3 Zrotation Yrotation Xrotation
						JOINT left_elbow
						{
							OFFSET 0.254123 -0.072151 -0.042459
							CHANNELS 3 Zrotation Yrotation Xrotation
							JOINT left_wrist
							{
								OFFSET 0.251987 0.023221 -0.002472
								CHANNELS 3 Zrotation Yrotation Xrotation
								JOINT left_index_1
								{
									OFFSET 0.101902 -0.008688 0.019351
									CHANNELS 3 Zrotation Yrotation Xrotation
									JOINT left_index_2
									{
										OFFSET 0.030149 -0.011154 0.001151
										CHANNELS 3 Zrotation Yrotation Xrotation
										JOINT left_index_3
										{
											OFFSET 0.006504 -0.021577 -0.002433
											CHANNELS 3 Zrotation Yrotation Xrotation
											End Site
											{
												OFFSET 0.000000 0.000000 0.000000
											}
										}
									}
								}
								JOINT left_middle_1
								{
									OFFSET 0.109398 -0.006328 -0.003981
									CHANNELS 3 Zrotation Yrotation Xrotation
									JOINT left_middle_2
									{
										OFFSET 0.026472 -0.015218 -0.004641
										CHANNELS 3 Zrotation Yrotation Xrotation
										JOINT left_middle_3
										{
											OFFSET 0.005022 -0.023347 -0.001911
											CHANNELS 3 Zrotation Yrotation Xrotation
											End Site
											{
												OFFSET 0.000000 0.000000 0.000000
											}
										}
									}
								}
								JOINT left_pinky_1
								{
									OFFSET 0.084047 -0.014539 -0.043750
									CHANNELS 3 Zrotation Yrotation Xrotation
									JOINT left_pinky_2
									{
										OFFSET 0.012124 -0.014448 -0.005375
										CHANNELS 3 Zrotation Yrotation Xrotation
										JOINT left_pinky_3
										{
											OFFSET 0.003798 -0.018853 0.000167
											CHANNELS 3 Zrotation Yrotation Xrotation
											End Site
											{
												OFFSET 0.000000 0.000000 0.000000
											}
										}
									}
								}
								JOINT left_ring_1
								{
									OFFSET 0.097444 -0.009268 -0.027345
									CHANNELS 3 Zrotation Yrotation Xrotation
									JOINT left_ring_2
									{
										OFFSET 0.023561 -0.016057 -0.001895
										CHANNELS 3 Zrotation Yrotation Xrotation
										JOINT left_ring_3
										{
											OFFSET 0.004257 -0.023548 0.000814
											CHANNELS 3 Zrotation Yrotation Xrotation
											End Site
											{
												OFFSET 0.000000 0.000000 0.000000
											}
										}
									}
								}
								JOINT left_thumb_1
								{
									OFFSET 0.040636 -0.017977 0.025611
									CHANNELS 3 Zrotation Yrotation Xrotation
									JOINT left_thumb_2
									{
										OFFSET 0.021637 -0.017639 0.011623
										CHANNELS 3 Zrotation Yrotation Xrotation
										JOINT left_thumb_3
										{
											OFFSET 0.024002 -0.008356 0.006548
											CHANNELS 3 Zrotation Yrotation Xrotation
											End Site
											{
												OFFSET 0.000000 0.000000 0.000000
											}
										}
									}
								}
							}
						}
					}
				}
				JOINT right_collar
				{
					OFFSET -0.047695 0.084339 -0.013400
					CHANNELS 3 Zrotation Yrotation Xrotation
					JOINT right_shoulder
					{
						OFFSET -0.102578 0.053524 -0.012669
						CHANNELS 3 Zrotation Yrotation Xrotation
						JOINT right_elbow
						{
							OFFSET -0.271150 -0.036492 -0.026467
							CHANNELS 3 Zrotation Yrotation Xrotation
							JOINT right_wrist
							{
								OFFSET -0.249267 -0.004533 -0.015325
								CHANNELS 3 Zrotation Yrotation Xrotation
								JOINT right_index_1
								{
									OFFSET -0.099881 -0.011783 0.019600
									CHANNELS 3 Zrotation Yrotation Xrotation
									JOINT right_index_2
									{
										OFFSET -0.030148 -0.011154 0.001151
										CHANNELS 3 Zrotation Yrotation Xrotation
										JOINT right_index_3
										{
											OFFSET -0.006505 -0.021577 -0.002432
											CHANNELS 3 Zrotation Yrotation Xrotation
											End Site
											{
												OFFSET 0.000000 0.000000 0.000000
											}
										}
									}
								}
								JOINT right_middle_1
								{
									OFFSET -0.107376 -0.009422 -0.003734
									CHANNELS 3 Zrotation Yrotation Xrotation
									JOINT right_middle_2
									{
										OFFSET -0.026472 -0.015218 -0.004641
										CHANNELS 3 Zrotation Yrotation Xrotation
										JOINT right_middle_3
										{
											OFFSET -0.005022 -0.023347 -0.001911
											CHANNELS 3 Zrotation Yrotation Xrotation
											End Site
											{
												OFFSET 0.000000 0.000000 0.000000
											}
										}
									}
								}
								JOINT right_pinky_1
								{
									OFFSET -0.082027 -0.017634 -0.043503
									CHANNELS 3 Zrotation Yrotation Xrotation
									JOINT right_pinky_2
									{
										OFFSET -0.012123 -0.014448 -0.005374
										CHANNELS 3 Zrotation Yrotation Xrotation
										JOINT right_pinky_3
										{
											OFFSET -0.003798 -0.018852 0.000167
											CHANNELS 3 Zrotation Yrotation Xrotation
											End Site
											{
												OFFSET 0.000000 0.000000 0.000000
											}
										}
									}
								}
								JOINT right_ring_1
								{
									OFFSET -0.095423 -0.012362 -0.027099
									CHANNELS 3 Zrotation Yrotation Xrotation
									JOINT right_ring_2
									{
										OFFSET -0.023561 -0.016057 -0.001895
										CHANNELS 3 Zrotation Yrotation Xrotation
										JOINT right_ring_3
										{
											OFFSET -0.004257 -0.023548 0.000816
											CHANNELS 3 Zrotation Yrotation Xrotation
											End Site
											{
												OFFSET 0.000000 0.000000 0.000000
											}
										}
									}
								}
								JOINT right_thumb_1
								{
									OFFSET -0.038613 -0.021074 0.025861
									CHANNELS 3 Zrotation Yrotation Xrotation
									JOINT right_thumb_2
									{
										OFFSET -0.021636 -0.017639 0.011623
										CHANNELS 3 Zrotation Yrotation Xrotation
										JOINT right_thumb_3
										{
											OFFSET -0.024004 -0.008353 0.006547
											CHANNELS 3 Zrotation Yrotation Xrotation
											End Site
											{
												OFFSET 0.000000 0.000000 0.000000
											}
										}
									}
								}
							}
						}
					}
				}
			}
		}
	}
}
MOTION
Frames: 4
Frame Time: 0.050000
0.000027 0.975914 0.000587 -2.978452 -1.150519 -4.259987 0.092502 0.818333 5.715225 7.921435 0.242607 -5.035693 -8.017409 -6.686259 10.142433 0.000000 0.000000 0.000000 0.446555 -0.242215 1.764392 -1.067431 0.664246 12.480100 2.255582 -0.478267 7.301415 0.000000 0.000000 0.000000 2.306619 0.539166 -4.295725 -9.848654 -0.989888 -20.876802 8.575571 -1.582155 33.017101 4.074436 -1.260508 2.329458 0.000000 0.000000 0.000000 5.234989 -2.425093 1.416897 -60.551571 -14.757497 -6.796364 -41.547484 -10.161856 4.917217 -2.228490 -0.161067 12.193741 -14.327342 5.952538 1.812561 4.441713 -2.306861 -5.348269 0.000000 0.000000 0.000000 -19.414477 2.208032 -2.871799 -8.058172 -0.636684 -6.100569 0.000000 0.000000 0.000000 4.932951 -9.706733 -8.151689 -52.682661 -4.691109 -7.883376 0.000000 0.000000 0.000000 -14.246086 0.237843 -1.431785 -32.415491 -3.132575 -8.467479 0.000000 0.000000 0.000000 6.433929 15.493350 13.252857 -2.501997 0.507929 0.899885 0.000000 0.000000 0.000000 -3.956305 3.232165 1.935392 59.923239 14.425759 -2.322912 27.764687 15.598916 2.055499 4.910223 0.929179 13.443144 11.015859 -1.572432 0.668284 -5.093341 1.550573 -2.447515 0.000000 0.000000 0.000000 15.545079 -0.061100 -2.936706 1.880018 -0.151551 -0.986893 0.000000 0.000000 0.000000 -6.178130 11.972761 -9.933689 45.552458 0.706092 -3.570180 0.000000 0.000000 0.000000 10.240702 2.631254 -2.421513 20.820434 -2.021047 3.874997 0.000000 0.000000 0.000000 -0.605465 -10.743114 10.343013 0.915062 1.888956 -0.278514 0.000000 0.000000 0.000000 
0.000910 0.975914 0.000587 -3.005441 -1.663592 -4.459324 0.026502 0.881552 6.100321 7.968750 0.264593 -5.200257 -7.808577 -6.382188 10.146870 0.000000 0.000000 0.000000 0.397919 -0.252890 1.873213 -1.171630 0.692421 12.584544 2.503348 -0.057690 7.254542 0.000000 0.000000 0.000000 2.391410 0.520381 -3.976255 -9.981829 -0.584002 -19.538215 8.652695 -1.317130 31.208439 4.072677 -1.401661 3.188174 0.000000 0.000000 0.000000 5.262360 -3.028775 1.685132 -60.494038 -14.675857 -6.676827 -41.552676 -10.862594 5.250800 -2.273860 0.388533 11.671215 -14.658991 4.459456 1.410822 6.874443 -2.217377 -4.255464 0.000000 0.000000 0.000000 -18.292733 1.256624 -2.973021 -9.405172 0.764573 -1.675433 0.000000 0.000000 0.000000 6.865968 -10.369408 -8.427884 -52.456290 -4.737365 -7.975429 0.000000 0.000000 0.000000 -12.821858 -0.441853 -1.574176 -33.669072 -1.222589 -3.786481 0.000000 0.000000 0.000000 4.893041 16.605031 14.772421 -1.952612 -1.243592 0.213826 0.000000 0.000000 0.000000 -4.169847 3.089464 1.898325 60.178882 14.750207 -2.142474 28.616112 15.759148 2.162405 4.295729 0.607896 13.189136 12.707893 -1.488969 0.621460 -5.981280 1.608498 -2.236181 0.000000 0.000000 0.000000 16.551613 -0.847411 -2.803418 2.234262 -0.150972 -1.158631 0.000000 0.000000 0.000000 -6.695075 10.829460 -8.239500 46.440441 1.298477 -4.568718 0.000000 0.000000 0.000000 10.676505 1.790028 -2.035013 18.654993 -0.691666 0.061732 0.000000 0.000000 0.000000 -0.131508 -10.731860 10.434637 3.595869 -0.931827 1.362406 0.000000 0.000000 0.000000 
0.001852 0.975914 0.001907 -3.083596 -1.660873 -4.454293 0.045655 0.852948 5.914896 7.968911 0.173619 -4.694163 -7.651766 -6.379163 9.830188 0.000000 0.000000 0.000000 0.420208 -0.278082 2.061997 -1.129368 0.676253 12.405861 2.452672 -0.160171 7.274980 0.000000 0.000000 0.000000 2.380652 0.476332 -3.541823 -9.942534 -1.069753 -21.180816 8.668746 -1.084121 32.079086 4.121617 -1.495262 3.595998 0.000000 0.000000 0.000000 5.179661 -3.020317 1.684047 -60.421070 -14.865368 -6.743645 -41.426970 -10.804468 5.215302 -2.710674 1.370307 11.283661 -13.684055 3.086119 1.080859 4.514692 -2.084568 -4.736457 0.000000 0.000000 0.000000 -16.920000 -0.411440 -3.341252 -12.172802 0.864109 -2.344392 0.000000 0.000000 0.000000 9.607684 -11.855060 -9.700115 -53.585422 -5.562236 -9.113500 0.000000 0.000000 0.000000 -11.137206 -2.033242 -2.194112 -33.983594 -1.289525 -3.727447 0.000000 0.000000 0.000000 4.835913 15.905445 14.009936 -2.549679 -1.391767 0.349595 0.000000 0.000000 0.000000 -4.028906 3.206117 1.929683 60.193098 14.378402 -2.266870 29.167033 16.924394 2.527038 4.528185 -0.461217 13.200219 12.381335 -3.097349 1.117056 -5.971695 2.724736 -5.884867 0.000000 0.000000 0.000000 15.609974 -0.440923 -2.789574 1.285063 -0.046507 -1.068565 0.000000 0.000000 0.000000 -8.005861 11.152969 -8.332270 46.808608 0.856333 -3.978173 0.000000 0.000000 0.000000 9.418463 1.824398 -1.933142 19.575605 -1.962905 4.087670 0.000000 0.000000 0.000000 -0.772727 -10.475738 9.999978 4.179197 -1.127492 1.584781 0.000000 0.000000 0.000000 
0.002618 0.975914 0.001907 -3.158038 -1.676198 -4.462815 0.068880 0.853468 5.930279 7.981728 0.173800 -4.699301 -7.627038 -6.364924 9.798505 0.000000 0.000000 0.000000 0.488070 -0.234891 1.687648 -1.172556 0.720766 13.098846 2.442586 -0.140157 7.213883 0.000000 0.000000 0.000000 2.374850 0.474623 -3.526747 -9.948125 -1.070626 -21.186550 8.133616 -2.186970 32.514823 3.772586 -1.293617 2.865435 0.000000 0.000000 0.000000 5.017837 -2.205551 1.265174 -60.291590 -14.768008 -6.474658 -41.325304 -10.985162 5.311284 -2.918659 -0.148165 10.543887 -13.742275 3.708471 1.272231 3.020402 -0.788160 -1.186655 0.000000 0.000000 0.000000 -17.694744 0.185589 -3.202454 -11.801399 0.580308 -2.894226 0.000000 0.000000 0.000000 8.312958 -11.825851 -10.334702 -56.389327 -2.387429 -3.937750 0.000000 0.000000 0.000000 -14.679775 1.364089 -0.863811 -31.382008 -3.602822 -8.680191 0.000000 0.000000 0.000000 5.006423 15.001770 12.861965 -3.333150 0.235699 1.049549 0.000000 0.000000 0.000000 -4.023898 4.075277 2.383475 60.152253 16.064674 -1.941138 29.298534 16.710780 2.472417 4.629026 0.164723 13.386432 12.350985 -2.607928 0.964813 -4.347875 2.092101 -4.399330 0.000000 0.000000 0.000000 14.974303 1.212980 -3.365214 4.579689 -1.385619 2.166787 0.000000 0.000000 0.000000 -9.128829 13.158241 -10.313310 50.226837 -1.218004 -0.766359 0.000000 0.000000 0.000000 11.327798 0.429097 -1.430052 17.985675 -0.352234 -1.185453 0.000000 0.000000 0.000000 0.698736 -11.132473 11.072971 1.231977 0.199913 0.319357 0.000000 0.000000 0.000000 
